<mxfile host="app.diagrams.net">
  <diagram name="Detailed Flowchart">
    <mxGraphModel dx="728" dy="398" grid="1" gridSize="10" guides="1" tooltips="1" connect="1" arrows="1" fold="1" page="1" pageScale="1" pageWidth="827" pageHeight="1169" math="0" shadow="0">
      <root>
        <mxCell id="0" />
        <mxCell id="1" parent="0" />
        
        <!-- Start -->
        <mxCell id="start" value="Start" style="ellipse;whiteSpace=wrap;html=1;" vertex="1" parent="1">
          <mxGeometry x="340" y="20" width="80" height="40" as="geometry" />
        </mxCell>
        
        <!-- Load and Setup -->
        <mxCell id="loadSetup" value="Load and Setup\nImport libraries and initialize settings" style="rounded=1;whiteSpace=wrap;html=1;" vertex="1" parent="1">
          <mxGeometry x="280" y="100" width="200" height="60" as="geometry" />
        </mxCell>
        
        <!-- Load Data -->
        <mxCell id="loadData" value="Load Data\nRead deduplicated dataset into DataFrame" style="rounded=1;whiteSpace=wrap;html=1;" vertex="1" parent="1">
          <mxGeometry x="280" y="200" width="200" height="60" as="geometry" />
        </mxCell>
        
        <!-- Initialize Results -->
        <mxCell id="initResults" value="Initialize Results\nLoad progress from JSON or start new" style="rounded=1;whiteSpace=wrap;html=1;" vertex="1" parent="1">
          <mxGeometry x="280" y="300" width="200" height="60" as="geometry" />
        </mxCell>
        
        <!-- Process Data -->
        <mxCell id="processData" value="Process Data\nGenerate questions and labels using API" style="rounded=1;whiteSpace=wrap;html=1;" vertex="1" parent="1">
          <mxGeometry x="280" y="400" width="200" height="60" as="geometry" />
        </mxCell>
        
        <!-- Save Progress -->
        <mxCell id="saveProgress" value="Save Progress\nSave results to JSON file" style="rounded=1;whiteSpace=wrap;html=1;" vertex="1" parent="1">
          <mxGeometry x="280" y="500" width="200" height="60" as="geometry" />
        </mxCell>
        
        <!-- End -->
        <mxCell id="end" value="End" style="ellipse;whiteSpace=wrap;html=1;" vertex="1" parent="1">
          <mxGeometry x="340" y="600" width="80" height="40" as="geometry" />
        </mxCell>
        
        <!-- Connecting arrows -->
        <mxCell id="flow1" style="edgeStyle=orthogonalEdgeStyle;rounded=0;orthogonalLoop=1;jettySize=auto;html=1;exitX=0.5;exitY=1;exitDx=0;exitDy=0;entryX=0.5;entryY=0;entryDx=0;entryDy=0;" edge="1" parent="1" source="start" target="loadSetup">
          <mxGeometry relative="1" as="geometry" />
        </mxCell>
        
        <mxCell id="flow2" style="edgeStyle=orthogonalEdgeStyle;rounded=0;orthogonalLoop=1;jettySize=auto;html=1;exitX=0.5;exitY=1;exitDx=0;exitDy=0;entryX=0.5;entryY=0;entryDx=0;entryDy=0;" edge="1" parent="1" source="loadSetup" target="loadData">
          <mxGeometry relative="1" as="geometry" />
        </mxCell>
        
        <mxCell id="flow3" style="edgeStyle=orthogonalEdgeStyle;rounded=0;orthogonalLoop=1;jettySize=auto;html=1;exitX=0.5;exitY=1;exitDx=0;exitDy=0;entryX=0.5;entryY=0;entryDx=0;entryDy=0;" edge="1" parent="1" source="loadData" target="initResults">
          <mxGeometry relative="1" as="geometry" />
        </mxCell>
        
        <mxCell id="flow4" style="edgeStyle=orthogonalEdgeStyle;rounded=0;orthogonalLoop=1;jettySize=auto;html=1;exitX=0.5;exitY=1;exitDx=0;exitDy=0;entryX=0.5;entryY=0;entryDx=0;entryDy=0;" edge="1" parent="1" source="initResults" target="processData">
          <mxGeometry relative="1" as="geometry" />
        </mxCell>
        
        <mxCell id="flow5" style="edgeStyle=orthogonalEdgeStyle;rounded=0;orthogonalLoop=1;jettySize=auto;html=1;exitX=0.5;exitY=1;exitDx=0;exitDy=0;entryX=0.5;entryY=0;entryDx=0;entryDy=0;" edge="1" parent="1" source="processData" target="saveProgress">
          <mxGeometry relative="1" as="geometry" />
        </mxCell>
        
        <mxCell id="flow6" style="edgeStyle=orthogonalEdgeStyle;rounded=0;orthogonalLoop=1;jettySize=auto;html=1;exitX=0.5;exitY=1;exitDx=0;exitDy=0;entryX=0.5;entryY=0;entryDx=0;entryDy=0;" edge="1" parent="1" source="saveProgress" target="end">
          <mxGeometry relative="1" as="geometry" />
        </mxCell>
        
        <!-- Detailed comments and steps -->
        <mxCell id="comment1" value="Import necessary libraries\nInitialize async settings\nSet up API client" style="note;whiteSpace=wrap;html=1;" vertex="1" parent="1">
          <mxGeometry x="500" y="100" width="250" height="60" as="geometry" />
        </mxCell>
        
        <mxCell id="comment2" value="Load deduplicated dataset\nfrom JSON file into\nPandas DataFrame" style="note;whiteSpace=wrap;html=1;" vertex="1" parent="1">
          <mxGeometry x="500" y="200" width="250" height="60" as="geometry" />
        </mxCell>
        
        <mxCell id="comment3" value="Check if previous results exist\nIf yes, load progress\nIf no, start new results list" style="note;whiteSpace=wrap;html=1;" vertex="1" parent="1">
          <mxGeometry x="500" y="300" width="250" height="60" as="geometry" />
        </mxCell>
        
        <mxCell id="comment4" value="For each article:\nGenerate questions using API\nGenerate labels using API\nHandle retries and rate limits" style="note;whiteSpace=wrap;html=1;" vertex="1" parent="1">
          <mxGeometry x="500" y="400" width="250" height="80" as="geometry" />
        </mxCell>
        
        <mxCell id="comment5" value="Save results to JSON file\nPeriodically save progress" style="note;whiteSpace=wrap;html=1;" vertex="1" parent="1">
          <mxGeometry x="500" y="500" width="250" height="60" as="geometry" />
        </mxCell>
        
        <!-- Connect comments to the corresponding steps -->
        <mxCell id="flow7" style="edgeStyle=orthogonalEdgeStyle;rounded=0;orthogonalLoop=1;jettySize=auto;html=1;dashed=1;" edge="1" parent="1" source="loadSetup" target="comment1">
          <mxGeometry relative="1" as="geometry" />
        </mxCell>
        
        <mxCell id="flow8" style="edgeStyle=orthogonalEdgeStyle;rounded=0;orthogonalLoop=1;jettySize=auto;html=1;dashed=1;" edge="1" parent="1" source="loadData" target="comment2">
          <mxGeometry relative="1" as="geometry" />
        </mxCell>
        
        <mxCell id="flow9" style="edgeStyle=orthogonalEdgeStyle;rounded=0;orthogonalLoop=1;jettySize=auto;html=1;dashed=1;" edge="1" parent="1" source="initResults" target="comment3">
          <mxGeometry relative="1" as="geometry" />
        </mxCell>
        
        <mxCell id="flow10" style="edgeStyle=orthogonalEdgeStyle;rounded=0;orthogonalLoop=1;jettySize=auto;html=1;dashed=1;" edge="1" parent="1" source="processData" target="comment4">
          <mxGeometry relative="1" as="geometry" />
        </mxCell>
        
        <mxCell id="flow11" style="edgeStyle=orthogonalEdgeStyle;rounded=0;orthogonalLoop=1;jettySize=auto;html=1;dashed=1;" edge="1" parent="1" source="saveProgress" target="comment5">
          <mxGeometry relative="1" as="geometry" />
        </mxCell>
      </root>
    </mxGraphModel>
  </diagram>
</mxfile>
